<?xml version="1.0" encoding="UTF-8"?>
<!DOCTYPE svg PUBLIC "-//W3C//DTD SVG 1.0//EN" "http://www.w3.org/TR/2001/REC-SVG-20010904/DTD/svg10.dtd">
<!-- Creator: CorelDRAW X7 -->
<svg xmlns="http://www.w3.org/2000/svg" xml:space="preserve" width="512px" height="512px" version="1.0" style="shape-rendering:geometricPrecision; text-rendering:geometricPrecision; image-rendering:optimizeQuality; fill-rule:evenodd; clip-rule:evenodd"
viewBox="0 0 10990 10990"
 xmlns:xlink="http://www.w3.org/1999/xlink">
 <defs>
  <style type="text/css">
   <![CDATA[
    .fil2 {fill:#D4B08C}
    .fil1 {fill:#F0CFA4}
    .fil0 {fill:#F4EDE3}
   ]]>
  </style>
 </defs>
 <g id="Layer_x0020_1">
  <metadata id="CorelCorpID_0Corel-Layer"/>
  <g id="_1480135753312">
   <circle class="fil0" cx="5495" cy="5495" r="5495"/>
   <path class="fil1" d="M4067 7295c73,34 86,61 145,126 111,124 314,275 458,358 707,407 1381,280 1962,-246 73,-67 220,-256 283,-279 51,-52 48,-46 154,-273 37,-65 53,-125 89,-189 392,-707 797,-2956 489,-3747 -137,-353 -220,-461 -465,-718 -676,-711 -2699,-828 -3530,81 -448,490 -506,1093 -443,1916 58,764 324,2181 753,2789 28,39 91,173 105,182z"/>
   <path class="fil1" d="M3993 8166l-28 26c-85,87 -90,108 -213,173 -387,203 -1589,441 -2109,594 -198,58 -303,34 -304,136l324 340c685,712 1795,1263 2773,1455 164,32 480,38 614,95l800 0c197,-55 592,-41 1187,-217 370,-110 678,-231 1021,-414 447,-238 905,-553 1250,-897 62,-61 126,-122 180,-183 31,-35 131,-159 163,-179 -14,-54 49,-58 -154,-97l-2051 -538c-300,-107 -377,-188 -506,-424 -18,-87 12,-281 -26,-396l-2822 -79c19,106 10,227 10,337 -1,88 -1,175 -46,228 -3,4 -9,8 -12,12l-33 19c-2,-4 -11,7 -18,9z"/>
   <path class="fil2" d="M4092 7561c13,47 180,251 231,306 259,277 718,563 1128,582 854,38 1380,-767 1463,-809 -12,-116 13,-259 1,-386 -63,23 -210,212 -283,279 -581,526 -1255,653 -1962,246 -144,-83 -347,-234 -458,-358 -59,-65 -72,-92 -145,-126l25 266z"/>
  </g>
 </g>
</svg>
