<?xml version="1.0" encoding="UTF-8"?>
<!DOCTYPE svg PUBLIC "-//W3C//DTD SVG 1.0//EN" "http://www.w3.org/TR/2001/REC-SVG-20010904/DTD/svg10.dtd">
<!-- Creator: CorelDRAW X7 -->
<svg xmlns="http://www.w3.org/2000/svg" xml:space="preserve" width="300px" height="300px" version="1.0" style="shape-rendering:geometricPrecision; text-rendering:geometricPrecision; image-rendering:optimizeQuality; fill-rule:evenodd; clip-rule:evenodd"
viewBox="0 0 103 103"
 xmlns:xlink="http://www.w3.org/1999/xlink">
 <defs>
  <style type="text/css">
   <![CDATA[
    .fil2 {fill:#B71C1C}
    .fil0 {fill:#B71C1C}
    .fil1 {fill:#FFFEFE}
   ]]>
  </style>
 </defs>
 <g id="Layer_x0020_1">
  <metadata id="CorelCorpID_0Corel-Layer"/>
  <g id="_1480145467792">
   <circle class="fil0" cx="52" cy="52" r="52"/>
   <path class="fil1" d="M37 40c0,0 0,0 0,-1 1,0 0,0 1,0 1,1 1,3 0,6 0,2 1,4 4,3 3,-1 0,-10 1,-12 0,-1 0,-1 1,-2 0,0 0,-5 0,-6 0,0 -2,-2 -3,-2 0,0 -1,-1 -2,-1l0 -3 -2 0c-1,-4 0,-4 -6,-4 -12,0 -11,-2 -11,8l0 19c0,5 2,4 6,4 12,0 11,1 11,-9z"/>
   <path class="fil1" d="M68 24c0,1 3,3 5,4 1,1 3,3 4,4 1,2 2,3 4,5 1,2 2,6 3,6 1,0 11,-6 12,-7 -1,-3 -6,-11 -8,-13 -2,-3 -9,-9 -12,-10 0,1 -1,2 -2,3 -1,1 -6,7 -6,8z"/>
   <path class="fil1" d="M85 46c0,3 3,9 1,20l-2 6c1,1 6,3 7,3 1,0 3,-5 4,-7 3,-6 4,-12 3,-19 0,-2 0,-8 -1,-9l-6 3c-2,1 -4,2 -6,3z"/>
   <path class="fil1" d="M53 57l13 21c0,2 0,1 1,1 0,0 -2,-5 -3,-6 -2,-3 -8,-14 -9,-17 1,-2 3,-4 1,-7 -4,-4 -11,0 -9,5 1,2 3,3 6,3z"/>
   <path class="fil1" d="M70 91c1,1 4,-1 5,-2 2,-1 3,-2 5,-3 2,-1 8,-6 8,-8 -2,0 -4,-2 -5,-3 -1,1 -2,4 -3,5 -2,3 -6,8 -10,10 0,1 0,0 0,1z"/>
   <path class="fil2" d="M21 22c0,1 0,2 1,3 2,0 8,0 11,0 2,0 2,-1 2,-3 0,-1 0,-2 -2,-2l-10 0c-1,0 -2,0 -2,2z"/>
   <path class="fil1" d="M55 91l9 0 0 -1 -7 0 0 -4 6 0 0 -1c-5,-1 -6,1 -6,-3l7 0 0 -2 -9 0 0 11z"/>
   <path class="fil1" d="M56 23l2 1 0 -5 5 0 0 -2 -5 0c0,-1 0,-2 0,-3l5 0 0 -2 -7 0 0 11z"/>
   <path class="fil2" d="M37 31c-1,6 -1,4 1,5 0,2 2,1 2,4 1,2 -1,7 1,7 2,-1 0,-7 0,-10 0,-2 0,-1 0,-2 -1,-1 -1,-3 0,-5l-3 -1c0,2 0,2 -1,2z"/>
  </g>
 </g>
</svg>
