<?xml version="1.0" encoding="UTF-8"?>
<!DOCTYPE svg PUBLIC "-//W3C//DTD SVG 1.0//EN" "http://www.w3.org/TR/2001/REC-SVG-20010904/DTD/svg10.dtd">
<!-- Creator: CorelDRAW X7 -->
<svg xmlns="http://www.w3.org/2000/svg" xml:space="preserve" width="300px" height="300px" version="1.0" style="shape-rendering:geometricPrecision; text-rendering:geometricPrecision; image-rendering:optimizeQuality; fill-rule:evenodd; clip-rule:evenodd"
viewBox="0 0 130 130"
 xmlns:xlink="http://www.w3.org/1999/xlink">
 <defs>
  <style type="text/css">
   <![CDATA[
    .fil2 {fill:#B71B1B}
    .fil0 {fill:#B71C1C}
    .fil1 {fill:#FFFEFE}
   ]]>
  </style>
 </defs>
 <g id="Layer_x0020_1">
  <metadata id="CorelCorpID_0Corel-Layer"/>
  <g id="_1480132828144">
   <circle class="fil0" cx="65" cy="65" r="65"/>
   <path class="fil1" d="M71 64c-2,-1 -5,-2 -8,-3 -2,-2 -5,-3 -8,-4 -5,-1 -15,-1 -21,0 -6,1 -11,4 -16,7 -4,1 -4,2 -5,6 0,3 -1,7 0,10l3 1c0,-4 1,-6 2,-8 3,-3 10,-3 13,1 4,6 -3,7 7,7l29 0c1,-4 0,-5 2,-8 3,-4 10,-3 13,0 2,2 2,4 2,8l4 -1c1,-2 0,-9 -2,-11 -3,-1 -10,-1 -13,-1 1,-3 12,-19 6,-18 -2,1 -6,12 -8,14z"/>
   <path class="fil1" d="M102 36c-1,-7 -9,-6 -6,-3 0,1 3,0 4,3 0,2 -1,4 -3,4 -1,-2 -1,-4 -3,-3 -1,1 1,3 -1,5 -2,1 -2,-2 -4,-1 -1,3 4,4 6,2 1,-1 0,-1 1,-1 3,-1 1,1 5,-2 0,-1 0,0 0,-1 2,2 2,3 1,5 0,3 -1,2 -3,3 0,2 2,5 -1,6 -1,0 -1,0 -2,1 -1,1 0,2 -2,4 -3,3 -1,2 -2,3 -2,3 -5,4 -9,4 1,-1 2,-1 3,-2 1,-1 1,-3 1,-4 0,0 -2,-2 -2,-5 1,-3 2,-3 3,-4 0,-1 -2,-2 -3,-4 -1,-1 0,-1 -1,-1 -1,-1 -3,0 -4,-1 -2,-2 0,-4 -1,-5 0,-1 -2,-1 -3,-4 1,-1 4,-1 4,-3 -3,-1 -3,2 -5,0 -2,-1 0,-3 -1,-5 -3,-1 -3,4 -1,6 0,1 1,1 1,2 1,1 0,1 3,5 0,4 1,7 6,7 0,0 0,1 1,1 0,1 0,1 1,2 -1,2 -2,3 -2,6 1,3 3,4 1,6 -2,1 -5,0 -4,3 1,3 9,1 12,-1 1,-1 2,-1 2,-2 1,-2 3,-3 3,-5 1,-2 0,-1 2,-2 2,-2 3,-4 2,-7 3,-1 5,-5 3,-8 -1,-2 -1,-1 0,-3 3,-7 -2,-14 -9,-15 -1,0 -3,0 -2,2 1,1 6,0 8,5 1,1 1,2 2,3 0,0 0,1 0,2l-1 1c0,1 0,1 0,1z"/>
   <path class="fil2" d="M48 67c3,0 20,1 21,0 0,-1 -2,-2 -4,-3 -4,-2 -12,-6 -17,-5l0 8z"/>
   <path class="fil1" d="M23 73c-8,2 -5,13 3,11 7,-1 4,-13 -3,-11z"/>
   <path class="fil1" d="M74 73c-7,2 -4,13 3,11 3,0 5,-3 4,-6 0,-3 -3,-6 -7,-5z"/>
   <path class="fil2" d="M31 66l15 1 0 -8c-3,0 -8,0 -10,1 -2,0 -4,4 -5,6z"/>
  </g>
 </g>
</svg>
