<?xml version="1.0" encoding="UTF-8"?>
<!DOCTYPE svg PUBLIC "-//W3C//DTD SVG 1.0//EN" "http://www.w3.org/TR/2001/REC-SVG-20010904/DTD/svg10.dtd">
<!-- Creator: CorelDRAW X7 -->
<svg xmlns="http://www.w3.org/2000/svg" xml:space="preserve" width="300px" height="300px" version="1.0" style="shape-rendering:geometricPrecision; text-rendering:geometricPrecision; image-rendering:optimizeQuality; fill-rule:evenodd; clip-rule:evenodd"
viewBox="0 0 74 74"
 xmlns:xlink="http://www.w3.org/1999/xlink">
 <defs>
  <style type="text/css">
   <![CDATA[
    .fil2 {fill:#B71C1C}
    .fil0 {fill:#B71C1C}
    .fil1 {fill:white}
   ]]>
  </style>
 </defs>
 <g id="Layer_x0020_1">
  <metadata id="CorelCorpID_0Corel-Layer"/>
  <g id="_1480133995392">
   <circle class="fil0" cx="37" cy="37" r="37"/>
   <path class="fil1" d="M20 52c-2,2 -1,3 0,4 0,0 33,0 34,0 1,0 1,-1 1,-2 0,-1 0,-1 -1,-2 3,-3 5,-6 5,-11 3,-14 -7,-27 -22,-27 -15,0 -25,13 -23,27 1,5 3,8 6,11z"/>
   <path class="fil2" d="M36 20c-6,1 -9,3 -12,6 -10,10 -2,29 14,28 9,-1 17,-9 16,-18 -1,-6 -3,-9 -6,-12 -2,-2 -7,-5 -12,-4z"/>
   <path class="fil1" d="M49 28c0,-2 -3,-4 -4,-5 -2,-1 -4,-1 -6,-2 0,2 0,8 0,10 0,3 4,1 6,-1 1,0 2,-1 2,-1 1,-1 2,-1 2,-1z"/>
   <path class="fil1" d="M51 43c2,-5 2,-7 0,-12 0,0 -7,4 -8,5 -1,0 -1,0 -1,1 0,1 3,3 4,3 1,1 5,3 5,3z"/>
   <path class="fil1" d="M24 28l6 3c5,3 5,2 5,-3l0 -7c-3,0 -10,4 -11,7z"/>
   <path class="fil1" d="M39 45c0,2 0,5 0,8 4,-1 10,-5 10,-7 -2,-1 -4,-2 -6,-3 -3,-3 -4,-3 -4,2z"/>
   <path class="fil1" d="M24 46c1,3 7,6 11,7l0 -8c0,-2 0,-3 -1,-4 -1,0 -3,1 -5,2 -1,1 -3,2 -5,3z"/>
   <path class="fil1" d="M22 43c1,0 4,-2 5,-3 6,-3 6,-3 1,-6 -1,-1 -5,-3 -6,-3 -1,4 -1,8 0,12z"/>
   <path class="fil1" d="M36 35c0,0 -1,0 -1,1 -1,1 0,4 3,3 2,-1 1,-5 -1,-4 -1,0 0,0 -1,0z"/>
   <path class="fil2" d="M40 32c1,-1 4,-2 5,-3 -1,0 -2,-2 -5,-3 0,2 0,4 0,6z"/>
   <path class="fil2" d="M29 45c1,1 3,2 5,2l0 -2 0 0 0 -3c-1,0 -4,2 -5,3z"/>
   <path class="fil2" d="M40 47c2,0 4,-1 5,-2 -1,-1 -4,-3 -5,-3 0,1 0,4 0,5z"/>
   <path class="fil2" d="M29 29c1,1 4,3 5,3 0,-4 0,-3 0,-6 -1,1 -2,1 -3,2 0,0 -1,1 -2,1z"/>
   <path class="fil2" d="M26 40c1,-1 2,-1 3,-2 0,0 0,0 1,0 0,-1 1,-1 1,-1 -2,-1 -2,-1 -3,-2l-2 -1c0,2 0,4 0,6z"/>
   <path class="fil2" d="M43 37c0,0 4,2 5,3 0,-3 0,-4 0,-6 -1,1 -4,2 -4,2 -1,1 -1,1 -1,1z"/>
   <path class="fil1" d="M41 37c0,-1 1,-1 0,-2 0,0 0,0 -1,0 -1,0 -1,2 1,2z"/>
   <path class="fil1" d="M36 33c-1,0 0,2 1,1 1,0 1,-2 -1,-1z"/>
   <path class="fil1" d="M36 39c-2,-1 -2,1 -2,1 1,1 2,1 2,-1z"/>
   <path class="fil1" d="M38 39c0,1 0,2 2,2 0,-1 0,-1 0,-2 -1,0 -1,0 -2,0z"/>
   <path class="fil1" d="M34 37c2,-3 -2,-2 -1,-1 0,1 1,1 1,1z"/>
  </g>
 </g>
</svg>
