<?xml version="1.0" encoding="UTF-8"?>
<!--============================================================================
  Copyright (c) 2017 Rizky Kharisma (@ngengs)


  Licensed under the Apache License, Version 2.0 (the "License");
  you may not use this file except in compliance with the License.
  You may obtain a copy of the License at

       http://www.apache.org/licenses/LICENSE-2.0

  Unless required by applicable law or agreed to in writing, software
  distributed under the License is distributed on an "AS IS" BASIS,
  WITHOUT WARRANTIES OR CONDITIONS OF ANY KIND, either express or implied.
  See the License for the specific language governing permissions and
  limitations under the License.
  ===========================================================================-->

<!DOCTYPE svg PUBLIC "-//W3C//DTD SVG 1.0//EN"
    "http://www.w3.org/TR/2001/REC-SVG-20010904/DTD/svg10.dtd">
<!-- Creator: CorelDRAW X7 -->
<svg xmlns="http://www.w3.org/2000/svg" xml:space="preserve" width="1945px" height="1945px" version="1.0" style="shape-rendering:geometricPrecision; text-rendering:geometricPrecision; image-rendering:optimizeQuality; fill-rule:evenodd; clip-rule:evenodd"
viewBox="0 0 2014 2014"
 >
 <defs>
  <style type="text/css">
   <![CDATA[
    .fil11 {fill:none}
    .fil14 {fill:#24282B}
    .fil16 {fill:#41270E}
    .fil1 {fill:#424242}
    .fil6 {fill:#514B5A}
    .fil5 {fill:#625D6B}
    .fil12 {fill:#7B1D13}
    .fil9 {fill:#B9B7BD}
    .fil2 {fill:#D55453}
    .fil10 {fill:#D59007}
    .fil7 {fill:#DCDBDE}
    .fil8 {fill:#DDDBDE}
    .fil4 {fill:#F53434}
    .fil13 {fill:#F7D5A5}
    .fil17 {fill:red}
    .fil3 {fill:#FF6567}
    .fil15 {fill:white}
    .fil0 {fill:white}
   ]]>
  </style>
 </defs>
 <g id="Layer_x0020_1">
  <metadata id="CorelCorpID_0Corel-Layer"/>
  <circle class="fil0" cx="1007" cy="1007" r="1007"/>
  <path class="fil1" d="M1994 808c13,64 20,131 20,199 0,106 -17,207 -47,303l-1920 0c-31,-96 -47,-197 -47,-303 0,-68 7,-135 20,-199l1974 0z"/>
  <g id="_3227305263152">
   <path class="fil2" d="M55 724c14,-35 64,-54 158,-53l150 -130c20,-17 40,-28 66,-28l322 0c21,1 47,11 61,25l118 133 353 53c39,22 44,42 48,74l-1 144 -1065 -2 -211 -59 1 -157z"/>
   <rect class="fil3" x="354" y="897" width="996.367" height="42.5301" rx="1541" ry="1340"/>
   <rect class="fil3" transform="matrix(0.170132 0.0389842 -0.244713 1.06796 46.5769 843.548)" width="790.59" height="38.8177" rx="1223" ry="1223"/>
   <rect class="fil3" x="458" y="808" width="508.33" height="42.5301" rx="786" ry="1340"/>
   <rect class="fil3" x="1286" y="804" width="65.9503" height="42.5301" rx="102" ry="1340"/>
   <path class="fil3" d="M225 646c63,0 127,31 188,29 430,-13 825,-10 870,49 74,47 5,40 -22,21 -161,-30 -610,-32 -1206,-21 2,-48 63,-72 170,-78z"/>
   <path class="fil0" d="M1281 742l28 0c3,0 25,42 20,42l-48 0c-12,0 -21,-9 -21,-21l0 0c0,-12 9,-21 21,-21z"/>
   <path class="fil4" d="M54 719l46 0c11,0 21,10 21,22l0 0c0,11 -10,21 -21,21l-46 0 0 -43z"/>
   <path class="fil5" d="M470 540l225 -1c10,0 10,1 17,9l87 100c7,8 2,27 -8,27l-366 0c-58,0 -76,-31 -53,-55l71 -71c7,-8 17,-9 27,-9z"/>
   <path class="fil5" d="M772 538l40 0 120 135 -59 0c-11,0 -21,-12 -28,-20l-77 -92c-7,-8 -6,-23 4,-23z"/>
   <circle class="fil6" cx="1129" cy="893" r="134"/>
   <circle class="fil0" cx="1129" cy="893" r="90"/>
   <circle class="fil7" cx="1129" cy="893" r="43"/>
   <circle class="fil6" cx="275" cy="897" r="134"/>
   <circle class="fil0" cx="275" cy="897" r="90"/>
   <circle class="fil7" cx="275" cy="897" r="43"/>
  </g>
  <g id="_3227305273904">
   <circle class="fil6" cx="1239" cy="1091" r="111"/>
   <circle class="fil0" cx="1239" cy="1091" r="67"/>
   <path class="fil3" d="M1544 923l-25 147 147 0c23,-3 33,-14 38,-28 10,-39 19,-80 17,-120l-30 -118c-2,-13 -2,-27 6,-36l9 -7c4,-3 9,2 12,5l81 128c7,11 12,25 13,37l-74 156c-10,12 -31,26 -44,25l-267 2c-6,-1 -13,-5 -22,-12l-51 -47 -241 -3c-5,0 -12,-5 -13,-11l0 -28c9,-43 72,-89 120,-91l324 1z"/>
   <path class="fil2" d="M1401 950l138 0 -20 120 -81 0c-25,-24 -44,-48 -66,-77 -10,-21 7,-43 29,-43z"/>
   <path class="fil2" d="M1382 922l-86 -71c-26,2 -53,4 -80,6 -20,1 -36,20 -30,27 12,12 23,25 34,38l162 0z"/>
   <path class="fil2" d="M1658 1070l22 -131c3,-18 -1,-38 -6,-58l-35 -155 43 7 22 47 34 270 -40 23 -40 -3z"/>
   <rect class="fil3" x="1624" y="680" width="125.937" height="58.9061" rx="960" ry="1050"/>
   <path class="fil8" d="M1710 680l10 0c16,0 30,13 30,29l0 0c0,16 -14,30 -30,30l-10 0 0 -59z"/>
   <polygon class="fil8" points="1610,641 1646,700 1676,701 1626,616 "/>
   <path class="fil9" d="M1604 588c17,0 32,15 32,33 0,17 -15,32 -32,32 -10,0 -18,-4 -24,-10l0 -44c6,-7 14,-11 24,-11z"/>
   <path class="fil6" d="M1646 685l14 8c7,4 9,13 6,19l0 0c-4,7 -13,9 -20,6l-14 -8c0,-1 -1,-1 -1,-1l-38 0c-8,0 -14,-7 -14,-14l0 0c0,-8 6,-14 14,-14l39 0c3,0 5,1 8,2 2,1 4,1 6,2z"/>
   <circle class="fil6" cx="1855" cy="1095" r="111"/>
   <rect class="fil9" x="1202" y="1053" width="226.482" height="75.4022" rx="993" ry="960"/>
   <circle class="fil0" cx="1855" cy="1095" r="67"/>
   <circle class="fil9" cx="1855" cy="1095" r="37"/>
   <rect class="fil7" transform="matrix(0.698682 -0.357665 0.357665 0.698682 1784.13 985.427)" width="28.0515" height="179.073" rx="1223" ry="1223"/>
   <path class="fil2" d="M1773 1012l125 3c8,-10 15,-21 23,-31 -15,-28 -66,-59 -109,-53l-39 81z"/>
   <circle class="fil7" cx="1239" cy="1091" r="37"/>
   <path class="fil6" d="M1382 922l162 1c15,-8 15,-27 9,-43 -8,-17 -24,-39 -45,-36 -58,4 -117,3 -176,-9 -25,-8 -39,-1 -38,23l88 64z"/>
  </g>
  <g id="_3227305278256">
   <g>
    <path class="fil10" d="M1067 325c108,24 189,123 196,233 -13,7 -32,30 -45,39l-2 96c13,-9 25,-17 36,-27 -33,111 -139,208 -242,217l0 0c0,-21 0,-44 1,-66 58,4 97,-21 117,-74 -40,-9 -78,-14 -117,-14 0,-8 1,-15 1,-22l-3 0c47,1 93,6 137,17 48,-60 52,-131 49,-205 -49,0 -92,-9 -130,-26 3,1 5,2 7,3l-5 -171zm-2 168c-6,-3 -8,-4 0,0z"/>
   </g>
   <path class="fil10" d="M999 321c24,-2 46,0 68,4l5 171c-35,-15 -65,-37 -91,-67 16,52 82,87 140,139 -74,-53 -156,-90 -181,-150 -37,37 -69,78 -143,85 3,105 17,188 59,213 54,-7 105,-11 156,-9 0,7 -1,14 -1,22 -44,-1 -88,4 -131,13 23,43 59,72 118,74 5,0 9,1 13,1 -1,22 -1,45 -1,66 -5,0 -10,0 -14,0 -106,0 -208,-101 -241,-216 10,9 22,17 34,26l-1 -96c-14,-9 -33,-32 -45,-39 4,-135 114,-251 256,-237z"/>
   <line class="fil11" x1="1666" y1="1934" x2="1670" y2="1934" />
   <path class="fil12" d="M809 1239c28,222 54,374 80,386l1 1c45,5 85,14 90,14l-1 69 3 -288 52 3 -5 215c10,-2 43,-9 82,-13l11 -11c43,-80 62,-214 69,-376l-382 0z"/>
   <path class="fil13" d="M1093 858l1 58 -188 2 0 -58c28,15 59,23 90,23 32,0 66,-9 97,-25l0 0zm-338 -191c10,9 22,17 34,26l-1 -96c-14,-9 -33,-32 -45,-39 -5,-2 -9,-3 -12,1 -19,29 5,78 10,93 4,6 9,11 14,15 2,8 1,4 0,0zm508 -109c5,-2 8,-3 11,1 19,29 -5,78 -10,93 -4,5 -8,10 -12,14 -1,4 -3,8 0,0 -11,10 -23,18 -36,27l2 -96c13,-9 32,-32 45,-39zm-466 -55c74,-7 106,-48 143,-85 25,60 107,97 181,150 -58,-52 -124,-87 -140,-139 52,60 124,90 214,90 3,74 -1,145 -49,205 -91,-23 -187,-22 -290,-8 -42,-25 -56,-108 -59,-213zm83 239c23,43 59,72 118,74 66,8 109,-17 130,-73 -85,-20 -168,-18 -248,-1zm581 29l53 -48 22 -61 -42 -66 -58 22 -21 66 -17 -33 -18 22 17 76 64 22zm-780 466l-36 63 -3 64 60 51 49 -39 0 -69 26 26 11 -26 -40 -68 -67 -2z"/>
   <g>
    <path class="fil10" d="M1067 325c108,24 189,123 196,233 -13,7 -32,30 -45,39l-2 96c13,-9 25,-17 36,-27 -33,111 -139,208 -242,217l-23 -22c0,-21 -16,-38 24,-44 58,4 97,-21 117,-74 -40,-9 -84,-14 -122,-14 0,-8 -4,-17 6,-22l-3 0c47,1 93,6 137,17 48,-60 52,-131 49,-205 -49,0 -92,-9 -130,-26 3,1 -20,-162 -15,-159l17 -9zm-2 168c-6,-3 -8,-4 0,0z"/>
   </g>
   <path class="fil10" d="M999 321c24,-2 46,0 68,4l5 171c-35,-15 -65,-37 -91,-67 16,52 82,87 140,139 -74,-53 -156,-90 -181,-150 -37,37 -69,78 -143,85 3,105 17,188 59,213 54,-7 105,-11 156,-9 0,7 -1,14 -1,22 -44,-1 -88,4 -131,13 23,43 59,72 118,74 5,0 9,1 13,1 -1,22 -1,45 -1,66 -5,0 -10,0 -14,0 -106,0 -208,-101 -241,-216 10,9 22,17 34,26l-1 -96c-14,-9 -33,-32 -45,-39 4,-135 114,-251 256,-237z"/>
   <path class="fil4" d="M907 872l-99 37c-133,137 -134,281 -149,353l107 0c-8,-80 10,-150 44,-215 0,61 -11,132 -1,192 51,149 352,123 382,0 9,-74 6,-152 -5,-234 181,-27 264,-114 293,-233l-94 -42c-26,96 -95,156 -220,166l-71 -24 -93 35c-36,-12 -58,-22 -94,-35z"/>
   <path class="fil14" d="M980 1640c-13,1 -265,-66 -225,69l224 0 1 -69z"/>
   <path class="fil14" d="M1027 1639c13,1 265,-66 224,69l-224 0 0 -69z"/>
   <path class="fil15" d="M924 544l0 0c14,0 25,9 25,21l0 45c0,12 -11,22 -25,22l0 0c-14,0 -25,-10 -25,-22l0 -45c0,-12 11,-21 25,-21z"/>
   <path class="fil15" d="M1081 547l0 0c-14,0 -25,10 -25,21l0 45c0,12 11,22 25,22l0 0c14,0 26,-10 26,-22l0 -45c0,-11 -12,-21 -26,-21z"/>
   <path class="fil16" d="M926 557l0 0c11,0 20,7 20,17l0 35c0,9 -9,17 -20,17l0 0c-11,0 -20,-8 -20,-17l0 -19c1,4 6,7 11,7l0 0c7,0 12,-4 12,-10l0 -21c0,-4 -3,-7 -7,-9 1,0 3,0 4,0z"/>
   <path class="fil16" d="M1080 560l0 0c-11,0 -20,7 -20,17l0 35c0,10 9,17 20,17l0 0c11,0 20,-7 20,-17l0 -19c-2,4 -6,7 -12,7l0 0c-6,0 -12,-4 -12,-10l0 -21c0,-4 3,-7 8,-9 -2,0 -3,0 -4,0z"/>
   <path class="fil17" d="M919 764c63,-11 119,-10 170,0 -94,-22 -82,-21 -170,0z"/>
   <path class="fil10" d="M970 526c-13,-15 -28,-30 -47,-24 -24,7 -36,22 -53,33 19,-5 42,-24 60,-20 15,0 27,7 40,11z"/>
   <path class="fil10" d="M1042 534c13,-14 28,-30 47,-24 24,7 35,22 53,33 -19,-5 -43,-24 -61,-20 -15,0 -26,7 -39,11z"/>
  </g>
 </g>
</svg>
