<?xml version="1.0" encoding="UTF-8"?>
<!DOCTYPE svg PUBLIC "-//W3C//DTD SVG 1.0//EN" "http://www.w3.org/TR/2001/REC-SVG-20010904/DTD/svg10.dtd">
<!-- Creator: CorelDRAW X7 -->
<svg xmlns="http://www.w3.org/2000/svg" xml:space="preserve" width="562px" height="651px" version="1.0" style="shape-rendering:geometricPrecision; text-rendering:geometricPrecision; image-rendering:optimizeQuality; fill-rule:evenodd; clip-rule:evenodd"
viewBox="0 0 2162 2505"
 xmlns:xlink="http://www.w3.org/1999/xlink">
 <defs>
  <style type="text/css">
   <![CDATA[
    .fil0 {fill:black}
    .fil14 {fill:#0052A3}
    .fil9 {fill:#00BCD4}
    .fil6 {fill:#186BAF}
    .fil15 {fill:#2286C2}
    .fil10 {fill:#24282B}
    .fil12 {fill:#41270E}
    .fil1 {fill:#514B5A}
    .fil8 {fill:#6A3C25}
    .fil17 {fill:#B71C1C}
    .fil4 {fill:#B9B7BD}
    .fil5 {fill:#D59007}
    .fil3 {fill:#DCDBDE}
    .fil16 {fill:#F4EDE3}
    .fil7 {fill:#F7D5A5}
    .fil13 {fill:red}
    .fil11 {fill:white}
    .fil2 {fill:white}
   ]]>
  </style>
 </defs>
 <g id="Layer_x0020_1">
  <metadata id="CorelCorpID_0Corel-Layer"/>
  <g id="_1480133990016">
   <polygon class="fil0" points="1080,2 1620,427 2160,852 1080,852 0,852 540,427 "/>
   <path class="fil0" d="M2037 808l0 1454c0,6 -5,11 -11,11l-266 0 0 -1241c0,-6 -5,-10 -10,-10l-1340 0c-6,0 -10,4 -10,10l0 1241 -266 0c-6,0 -11,-5 -11,-11l0 -1454 1914 0z"/>
   <path class="fil0" d="M1611 1519c62,-1 111,-51 111,-113 0,-61 -49,-112 -111,-112l0 35 28 20 26 2 6 36 17 19 -21 30 -2 26 -36 6 -18 15 0 36z"/>
   <path class="fil0" d="M1613 1519c-62,-1 -111,-51 -111,-113 0,-61 49,-112 111,-112l0 35 -28 20 -26 2 -6 36 -17 19 21 30 2 26 36 6 18 15 0 36z"/>
   <rect class="fil0" x="930" y="1365" width="595.184" height="87.1718" rx="5" ry="3"/>
   <circle class="fil0" cx="1457" cy="2020" r="258"/>
   <path class="fil0" d="M862 1296c63,0 113,50 113,113 0,62 -50,112 -113,112 -37,0 -70,-18 -90,-45l78 0c14,0 26,-12 26,-26l0 -83c0,-14 -12,-26 -26,-26l-78 0c20,-27 53,-45 90,-45z"/>
   <g>
    <g>
     <circle class="fil1" cx="1460" cy="2017" r="258"/>
     <circle class="fil2" cx="1460" cy="2017" r="173"/>
     <circle class="fil3" cx="1460" cy="2017" r="83"/>
    </g>
    <polygon class="fil4" points="1460,1843 1488,1939 1583,1894 1535,1982 1634,2017 1538,2046 1583,2140 1495,2092 1460,2192 1431,2095 1336,2140 1385,2052 1285,2017 1382,1989 1336,1894 1425,1942 "/>
    <circle class="fil3" cx="1460" cy="2017" r="66"/>
   </g>
   <path class="fil0" d="M1154 1561l1 11 58 20c103,-8 159,-57 181,-137l7 3 -11 -50 15 -18 14 27 17 -54 48 -18 34 54 -18 50 -39 36 11 4c-24,99 -92,170 -242,193 9,68 12,132 4,193l0 0c-5,133 -21,243 -57,309l-9 10 0 0c61,-7 137,-3 116,67l-184 0 -1 -57c0,0 1,0 2,0l4 -177 -43 -2 -2 237 0 -19 0 19 -185 0c-21,-69 51,-74 111,-68l-1 -1c-21,-10 -43,-136 -65,-318l0 0c-9,-50 0,-108 0,-159 -28,54 -42,112 -36,178l-4 0 22 37 -9 21 -22 -21 0 56 -40 33 -49 -42 2 -53 18 -31 -6 0c12,-60 13,-179 122,-291l82 -30 0 -11c-1,0 -2,-1 -3,-1l0 0c-3,-2 -5,-3 -8,-5 -2,-2 -5,-3 -8,-5 -49,-33 -86,-86 -104,-142l0 -1c-1,-2 -1,-3 -1,-4 -5,-4 -8,-8 -11,-13 -5,-12 -24,-53 -9,-77 2,-3 6,-2 10,0 3,-111 94,-207 211,-196 116,-9 211,87 217,196 4,-2 7,-3 9,0 16,24 -3,65 -8,77 -3,4 -6,8 -10,12 0,1 -1,2 -1,4l0 1c-1,1 -1,2 -2,3 -19,59 -65,114 -119,145l0 0c-3,2 -6,3 -8,5l-1 0z"/>
   <polygon class="fil0" points="1082,2505 1026,2408 971,2311 1082,2311 1194,2311 1138,2408 "/>
   <g>
    <path class="fil5" d="M1137 1119c89,19 155,101 161,191 -11,6 -26,25 -37,32l-2 79c11,-7 21,-14 30,-22 -27,91 -115,172 -200,179l0 0c1,-17 1,-36 1,-54 48,3 80,-18 97,-62 -33,-7 -65,-11 -96,-11 0,-6 0,-12 0,-18l-2 0c39,0 76,5 112,14 40,-49 43,-108 41,-169 -40,0 -76,-7 -107,-21 2,0 4,1 6,2l-4 -140zm-2 138c-5,-3 -6,-3 0,0z"/>
   </g>
   <path class="fil5" d="M1081 1115c19,-2 38,0 56,4l4 140c-29,-12 -54,-31 -75,-55 13,42 67,72 115,115 -61,-44 -129,-74 -150,-124 -30,30 -56,64 -117,70 2,87 14,155 49,176 44,-6 86,-9 128,-8 0,6 0,12 0,18 -37,-1 -73,3 -109,11 20,35 49,59 98,61 3,0 7,1 10,1 0,18 0,37 -1,54 -4,0 -7,0 -11,0 -87,0 -172,-83 -199,-178 8,8 19,14 29,21l-2 -79c-11,-7 -26,-26 -37,-31 3,-112 94,-208 212,-196z"/>
   <path class="fil6" d="M924 1871c23,183 45,309 65,318l2 2c37,3 69,11 73,11l0 57 2 -237 43 2 -4 177c8,-1 36,-7 68,-11l9 -9c35,-66 51,-176 57,-310l-315 0z"/>
   <path class="fil4" d="M867 1291c62,0 112,51 112,113 0,62 -50,113 -112,113 -37,0 -70,-18 -91,-46l79 0c14,0 25,-11 25,-25l0 -84c0,-14 -11,-25 -25,-25l-79 0c21,-28 54,-46 91,-46z"/>
   <polygon class="fil7" points="1461,1486 1505,1446 1523,1396 1488,1341 1440,1360 1423,1414 1409,1387 1394,1405 1409,1468 "/>
   <rect class="fil4" x="936" y="1361" width="595.184" height="87.1718" rx="5" ry="3"/>
   <g>
    <path class="fil8" d="M1137 1119c89,19 155,101 161,191 -11,6 -26,25 -37,32l-2 79c11,-7 21,-14 30,-22 -27,91 -115,172 -200,179l-18 -18c0,-17 -14,-31 19,-36 48,3 80,-18 97,-62 -33,-7 -69,-11 -101,-11 0,-6 -3,-14 5,-18l-2 0c39,0 76,5 112,14 40,-49 43,-108 41,-169 -40,0 -76,-7 -107,-21 2,0 -17,-134 -12,-132l14 -6zm-2 138c-5,-3 -6,-3 0,0z"/>
   </g>
   <path class="fil8" d="M1081 1115c19,-2 38,0 56,4l4 140c-29,-12 -54,-31 -75,-55 13,42 67,72 115,115 -61,-44 -129,-74 -150,-124 -30,30 -56,64 -117,70 2,87 14,155 49,176 44,-6 86,-9 128,-8 0,6 0,12 0,18 -37,-1 -73,3 -109,11 20,35 49,59 98,61 3,0 7,1 10,1 0,18 0,37 -1,54 -4,0 -7,0 -11,0 -87,0 -172,-83 -199,-178 8,8 19,14 29,21l-2 -79c-11,-7 -26,-26 -37,-31 3,-112 94,-208 212,-196z"/>
   <path class="fil7" d="M1158 1557l1 48 -156 2 0 -48c24,12 49,19 75,19 27,0 54,-7 80,-21l0 0zm-279 -157c8,8 19,14 29,21l-2 -79c-11,-7 -26,-26 -37,-31 -4,-3 -7,-3 -9,0 -16,24 3,64 8,77 3,4 7,9 11,12 2,7 1,4 0,0zm419 -90c4,-2 7,-2 9,1 16,24 -4,64 -8,77 -3,4 -6,8 -10,11 -1,4 -2,7 0,0 -9,8 -19,15 -30,22l2 -79c11,-7 26,-26 37,-32zm-384 -45c61,-6 87,-40 117,-70 21,50 89,80 150,124 -48,-43 -102,-73 -115,-115 42,50 101,74 176,74 2,61 -1,120 -41,169 -74,-18 -154,-18 -238,-6 -35,-21 -47,-89 -49,-176zm68 197c20,35 49,59 98,61 54,6 89,-14 107,-61 -71,-16 -139,-14 -205,0zm-164 408l-29 52 -3 53 50 41 40 -32 0 -56 21 21 9 -21 -32 -56 -56 -2z"/>
   <path class="fil9" d="M1004 1569l-81 31c-110,112 -110,231 -122,290l88 0c-7,-65 8,-123 35,-177 1,51 -9,109 0,158 42,124 290,102 315,0 7,-60 5,-124 -4,-192 149,-23 217,-95 241,-193l-77 -34c-22,79 -78,129 -182,136l-58 -19 -77 29c-30,-10 -47,-18 -78,-29z"/>
   <path class="fil10" d="M1064 2202c-10,1 -218,-54 -184,57l184 0 0 -57z"/>
   <path class="fil10" d="M1103 2201c11,1 219,-54 185,57l-184 0 -1 -57z"/>
   <path class="fil11" d="M1019 1299l0 0c11,0 21,8 21,17l0 37c0,10 -10,18 -21,18l0 0c-12,0 -21,-8 -21,-18l0 -37c0,-9 9,-17 21,-17z"/>
   <path class="fil11" d="M1148 1301l0 0c-11,0 -21,8 -21,18l0 37c0,10 10,17 21,17l0 0c12,0 21,-7 21,-17l0 -37c0,-10 -9,-18 -21,-18z"/>
   <path class="fil12" d="M1020 1309l0 0c9,0 17,7 17,14l0 29c0,8 -8,14 -17,14l0 0c-9,0 -16,-6 -16,-14l0 -16c1,4 5,6 9,6l0 0c5,0 10,-3 10,-8l0 -17c0,-3 -3,-6 -6,-7 1,-1 2,-1 3,-1z"/>
   <path class="fil12" d="M1147 1312l0 0c-9,0 -17,6 -17,14l0 29c0,8 8,14 17,14l0 0c9,0 16,-6 16,-14l0 -16c-1,3 -5,6 -9,6l0 0c-5,0 -10,-4 -10,-8l0 -17c0,-4 3,-7 6,-8 -1,0 -2,0 -3,0z"/>
   <path class="fil8" d="M1056 1284c-10,-12 -23,-25 -38,-20 -20,6 -29,18 -44,27 16,-4 35,-19 50,-16 12,0 22,6 32,9z"/>
   <path class="fil8" d="M1116 1291c10,-12 23,-25 38,-20 20,6 30,18 44,27 -16,-4 -35,-20 -50,-16 -12,0 -21,6 -32,9z"/>
   <path class="fil4" d="M1617 1517c-61,-1 -111,-51 -111,-113 0,-62 50,-112 111,-113l0 36 -28 20 -25 2 -7 35 -16 20 20 30 3 25 35 7 18 15 0 36z"/>
   <polygon class="fil7" points="1433,1384 1456,1416 1523,1396 1502,1336 1440,1360 "/>
   <path class="fil13" d="M1131 1467c0,21 -21,38 -47,38 -25,0 -46,-17 -47,-38 2,0 3,0 5,0l89 0z"/>
   <polygon class="fil7" points="1443,1440 1404,1448 1400,1430 1436,1421 "/>
   <path class="fil6" d="M874 1278c140,-37 279,-34 417,8l0 -160c-1,-27 -48,-57 -86,-56 -87,0 -175,0 -263,0 -30,-1 -67,22 -68,43l0 165z"/>
   <path class="fil14" d="M874 1249c-23,6 -18,33 0,29 138,-37 266,-36 417,8 13,2 15,-31 0,-35 -172,-48 -276,-43 -417,-2z"/>
   <rect class="fil15" x="947" y="1116" width="270.429" height="52.1544" rx="1074" ry="1074"/>
   <path class="fil6" d="M1004 1569l-34 13 0 235c0,0 -30,7 -50,12 1,15 2,29 4,42 42,124 290,102 315,0 1,-13 3,-27 3,-41 -19,-5 -52,-13 -52,-13l0 -238 -31 -10 -1 0 0 89 -154 0 0 -89z"/>
   <path class="fil16" d="M2039 806l0 1454c0,6 -5,11 -11,11l-266 0 0 -1242c0,-5 -4,-9 -10,-9l-1340 0c-5,0 -10,4 -10,9l0 1242 -266 0c-6,0 -11,-5 -11,-11l0 -1454 1914 0z"/>
   <polygon class="fil17" points="1082,0 1622,425 2162,850 1082,850 2,850 542,425 "/>
   <path class="fil4" d="M1615 1517c62,-1 112,-51 112,-113 0,-62 -50,-112 -112,-113l0 36 28 20 26 2 6 35 17 20 -21 30 -2 25 -35 7 -19 15 0 36z"/>
  </g>
 </g>
</svg>
