<?xml version="1.0" encoding="UTF-8"?>
<!DOCTYPE svg PUBLIC "-//W3C//DTD SVG 1.0//EN" "http://www.w3.org/TR/2001/REC-SVG-20010904/DTD/svg10.dtd">
<!-- Creator: CorelDRAW X7 -->
<svg xmlns="http://www.w3.org/2000/svg" xml:space="preserve" width="500px" height="500px" version="1.0" style="shape-rendering:geometricPrecision; text-rendering:geometricPrecision; image-rendering:optimizeQuality; fill-rule:evenodd; clip-rule:evenodd"
viewBox="0 0 118 118"
 xmlns:xlink="http://www.w3.org/1999/xlink">
 <defs>
  <style type="text/css">
   <![CDATA[
    .fil2 {fill:#514B5A}
    .fil6 {fill:#B9B7BD}
    .fil0 {fill:#D32F2F}
    .fil4 {fill:#D55453}
    .fil7 {fill:#DCDBDE}
    .fil5 {fill:#DDDBDE}
    .fil3 {fill:#FF6567}
    .fil1 {fill:white}
   ]]>
  </style>
 </defs>
 <g id="Layer_x0020_1">
  <metadata id="CorelCorpID_0Corel-Layer"/>
  <g id="_1480143240144">
   <g>
    <circle class="fil0" cx="59" cy="59" r="59"/>
    <circle class="fil1" cx="59" cy="59" r="53"/>
   </g>
   <circle class="fil2" cx="39" cy="73" r="8"/>
   <circle class="fil1" cx="39" cy="73" r="5"/>
   <path class="fil3" d="M60 61l-2 10 11 0c1,0 2,-1 2,-2 1,-2 2,-5 1,-8l-2 -8c0,-1 0,-2 1,-3l0 0c1,-1 1,0 1,0l6 9c0,1 1,2 1,3l-5 10c-1,1 -3,2 -4,2l-18 0c-1,0 -1,0 -2,0l-3 -4 -17 0c-1,0 -1,0 -1,-1l0 -2c1,-3 5,-6 8,-6l23 0z"/>
   <path class="fil4" d="M50 63l10 0 -2 8 -5 0c-2,-1 -4,-3 -5,-5 -1,-2 0,-3 2,-3z"/>
   <path class="fil4" d="M49 61l-6 -5c-2,0 -4,0 -6,0 -1,0 -2,2 -2,2 1,1 2,2 2,3l12 0z"/>
   <path class="fil4" d="M68 71l2 -9c0,-1 -1,-3 -1,-4l-2 -11 3 1 1 3 3 19 -3 2 -3 -1z"/>
   <rect class="fil3" x="66" y="44" width="8.8148" height="4.12307" rx="67" ry="74"/>
   <path class="fil5" d="M72 44l0 0c1,0 2,1 2,2l0 0c0,1 -1,2 -2,2l0 0 0 -4z"/>
   <polygon class="fil5" points="65,41 67,45 69,45 66,40 "/>
   <path class="fil6" d="M64 38c1,0 2,1 2,2 0,1 -1,2 -2,2 -1,0 -1,0 -2,-1l0 -3c1,0 1,0 2,0z"/>
   <path class="fil2" d="M67 44l1 1c1,0 1,1 0,1l0 0c0,1 0,1 -1,1l-1 -1c0,0 0,0 0,0l-3 0c0,0 -1,0 -1,-1l0 0c0,0 1,-1 1,-1l3 0c0,0 1,0 1,0 0,0 0,0 0,0z"/>
   <circle class="fil2" cx="82" cy="73" r="8"/>
   <rect class="fil6" x="36" y="70" width="15.8524" height="5.2777" rx="70" ry="67"/>
   <circle class="fil1" cx="82" cy="73" r="5"/>
   <circle class="fil6" cx="82" cy="73" r="3"/>
   <rect class="fil7" transform="matrix(0.213636 -0.109364 0.109364 0.213636 76.7876 65.3892)" width="6.42126" height="40.9915" rx="280" ry="280"/>
   <path class="fil4" d="M76 67l9 0c0,0 1,-1 1,-2 -1,-2 -4,-4 -7,-3l-3 5z"/>
   <circle class="fil7" cx="39" cy="73" r="3"/>
   <path class="fil2" d="M49 61l11 0c1,-1 1,-2 1,-3 -1,-1 -2,-3 -4,-3 -4,1 -8,1 -12,0 -2,-1 -3,0 -3,1l7 5z"/>
  </g>
 </g>
</svg>
