<?xml version="1.0" encoding="UTF-8"?>
<!DOCTYPE svg PUBLIC "-//W3C//DTD SVG 1.0//EN" "http://www.w3.org/TR/2001/REC-SVG-20010904/DTD/svg10.dtd">
<!-- Creator: CorelDRAW X7 -->
<svg xmlns="http://www.w3.org/2000/svg" xml:space="preserve" width="293px" height="366px" version="1.0" style="shape-rendering:geometricPrecision; text-rendering:geometricPrecision; image-rendering:optimizeQuality; fill-rule:evenodd; clip-rule:evenodd"
viewBox="0 0 228 285"
 xmlns:xlink="http://www.w3.org/1999/xlink">
 <defs>
  <style type="text/css">
   <![CDATA[
    .fil3 {fill:none}
    .fil1 {fill:black}
    .fil6 {fill:#00BCD4}
    .fil7 {fill:#24282B}
    .fil9 {fill:#41270E}
    .fil4 {fill:#7B1D13}
    .fil2 {fill:#D59007}
    .fil5 {fill:#F7D5A5}
    .fil0 {fill:red}
    .fil8 {fill:white}
   ]]>
  </style>
 </defs>
 <g id="Layer_x0020_1">
  <metadata id="CorelCorpID_0Corel-Layer"/>
  <rect class="fil0" width="228" height="285"/>
  <path class="fil1" d="M130 92l0 2 12 4c21,-2 32,-12 37,-28l1 1 -2 -10 3 -4 3 6 3 -11 10 -4 7 11 -4 10 -8 7 2 1c-5,20 -18,35 -49,39 2,14 3,27 1,40l0 0c-1,27 -4,49 -12,63l-1 2 0 0c12,-2 27,-1 23,13l-37 0 0 -11c0,0 0,0 0,0l1 -36 -9 -1 -1 49 1 -4 -1 4 -37 0c-4,-14 10,-16 23,-14l-1 -1c-4,-2 -8,-27 -13,-64l0 0c-2,-10 0,-22 0,-33 -6,11 -9,23 -7,37l-1 0 4 7 -1 4 -5 -4 0 12 -8 6 -10 -8 0 -11 4 -6 -1 0c2,-13 2,-37 25,-60l16 -6 0 -2c0,0 0,0 0,0l0 0c-1,-1 -1,-1 -2,-1 0,-1 -1,-1 -1,-1 -10,-7 -18,-18 -22,-29l0 0c0,-1 0,-1 0,-1 -1,-1 -2,-2 -2,-3 -1,-2 -5,-11 -2,-15 1,-1 1,-1 2,-1 1,-22 19,-42 43,-39 24,-2 43,17 44,39 1,0 2,0 2,1 3,4 -1,13 -2,15 0,1 -1,2 -2,3 0,0 0,0 0,0l0 1c0,0 0,0 0,0 -4,12 -14,24 -25,30l0 0c0,0 -1,0 -1,1l0 0z"/>
  <polygon class="fil1" points="115,284 104,264 92,245 115,245 138,245 126,264 "/>
  <g>
   <path class="fil2" d="M126 2c18,4 32,20 33,39 -2,1 -5,5 -8,6l0 16c2,-1 4,-3 6,-4 -5,18 -23,35 -40,36l0 0c0,-3 0,-7 0,-11 9,1 16,-3 19,-12 -6,-2 -13,-3 -19,-3 0,-1 0,-2 0,-3l-1 0c8,0 16,1 23,3 8,-10 9,-22 9,-35 -9,0 -16,-1 -22,-4 0,0 1,0 1,0l-1 -28zm0 28c-1,-1 -1,-1 0,0z"/>
  </g>
  <path class="fil2" d="M115 1c4,0 8,0 11,1l1 28c-6,-2 -11,-6 -15,-11 2,9 13,15 23,23 -12,-9 -26,-15 -30,-25 -6,6 -12,13 -24,14 0,18 3,32 10,36 9,-1 17,-2 26,-1 0,1 0,2 0,3 -8,0 -15,1 -22,3 4,7 10,12 20,12 0,0 1,0 2,0 0,4 0,8 0,11 -1,0 -2,0 -3,0 -18,0 -35,-17 -40,-36 1,2 3,3 6,4l-1 -16c-2,-1 -5,-5 -7,-6 0,-23 19,-42 43,-40z"/>
  <line class="fil3" x1="227" y1="272" x2="227" y2= "272" />
  <path class="fil4" d="M83 155c4,37 9,63 13,65l0 0c8,1 15,2 15,2l0 12 1 -48 9 0 -1 36c1,0 7,-1 13,-2l2 -2c8,-13 11,-36 12,-63l-64 0z"/>
  <path class="fil5" d="M131 91l0 10 -32 0 0 -10c5,3 10,4 15,4 6,0 11,-1 17,-4l0 0zm-57 -32c1,2 3,3 6,4l-1 -16c-2,-1 -5,-5 -7,-6 -1,-1 -2,-1 -2,0 -3,5 1,13 1,15 1,1 2,2 3,3 0,1 0,1 0,0zm85 -18c1,-1 1,-1 2,0 3,5 -1,13 -2,15 0,1 -1,2 -2,3 0,1 0,1 0,0 -2,1 -4,3 -6,4l0 -16c3,-1 6,-5 8,-6zm-78 -10c12,-1 18,-8 24,-14 4,10 18,16 30,25 -10,-8 -21,-14 -23,-23 8,10 20,15 36,15 0,13 -1,25 -9,35 -15,-4 -31,-4 -48,-2 -7,-4 -10,-18 -10,-36zm14 41c4,7 10,12 20,12 11,1 18,-3 21,-12 -14,-4 -28,-3 -41,0zm97 5l9 -9 4 -10 -7 -11 -10 4 -3 11 -3 -6 -3 4 3 13 10 4zm-131 78l-6 10 0 11 10 9 8 -7 0 -12 4 5 2 -5 -6 -11 -12 0z"/>
  <g>
   <path class="fil2" d="M126 2c18,4 32,20 33,39 -2,1 -5,5 -8,6l0 16c2,-1 4,-3 6,-4 -5,18 -23,35 -40,36l-4 -3c0,-4 -3,-7 4,-8 9,1 16,-3 19,-12 -6,-2 -14,-3 -20,-3 0,-1 -1,-2 1,-3l-1 0c8,0 16,1 23,3 8,-10 9,-22 9,-35 -9,0 -16,-1 -22,-4 0,0 -4,-27 -3,-27l3 -1zm0 28c-1,-1 -1,-1 0,0z"/>
  </g>
  <path class="fil2" d="M115 1c4,0 8,0 11,1l1 28c-6,-2 -11,-6 -15,-11 2,9 13,15 23,23 -12,-9 -26,-15 -30,-25 -6,6 -12,13 -24,14 0,18 3,32 10,36 9,-1 17,-2 26,-1 0,1 0,2 0,3 -8,0 -15,1 -22,3 4,7 10,12 20,12 0,0 1,0 2,0 0,4 0,8 0,11 -1,0 -2,0 -3,0 -18,0 -35,-17 -40,-36 1,2 3,3 6,4l-1 -16c-2,-1 -5,-5 -7,-6 0,-23 19,-42 43,-40z"/>
  <path class="fil6" d="M99 94l-16 6c-23,23 -23,47 -25,59l18 0c-2,-13 1,-25 7,-36 0,10 -2,22 0,32 8,25 59,21 64,0 1,-12 1,-25 -1,-39 31,-5 44,-19 49,-39l-15 -7c-5,16 -16,26 -37,27l-12 -4 -16 6c-6,-2 -10,-3 -16,-5z"/>
  <path class="fil7" d="M111 222c-2,0 -44,-11 -37,12l37 0 0 -12z"/>
  <path class="fil7" d="M119 222c3,0 45,-11 38,12l-37 0 -1 -12z"/>
  <path class="fil8" d="M102 38l0 0c2,0 4,2 4,4l0 8c0,1 -2,3 -4,3l0 0c-2,0 -4,-2 -4,-3l0 -8c0,-2 2,-4 4,-4z"/>
  <path class="fil8" d="M129 39l0 0c-3,0 -5,1 -5,3l0 8c0,2 2,4 5,4l0 0c2,0 4,-2 4,-4l0 -8c0,-2 -2,-3 -4,-3z"/>
  <path class="fil9" d="M102 41l0 0c2,0 4,1 4,2l0 6c0,2 -2,3 -4,3l0 0c-1,0 -3,-1 -3,-3l0 -3c0,1 1,1 2,1l0 0c1,0 2,0 2,-1l0 -4c0,-1 -1,-1 -1,-1 0,0 0,0 0,0z"/>
  <path class="fil9" d="M128 41l0 0c-2,0 -3,1 -3,3l0 6c0,1 1,3 3,3l0 0c2,0 4,-2 4,-3l0 -3c-1,0 -1,1 -2,1l0 0c-1,0 -2,-1 -2,-2l0 -3c0,-1 0,-2 1,-2 0,0 -1,0 -1,0z"/>
  <path class="fil0" d="M101 75c11,-2 20,-1 29,0 -16,-3 -14,-3 -29,0z"/>
  <path class="fil2" d="M110 35c-2,-2 -5,-5 -8,-4 -4,2 -6,4 -9,6 3,-1 7,-4 10,-3 3,0 5,1 7,1z"/>
  <path class="fil2" d="M122 37c2,-3 5,-5 8,-4 4,1 6,3 9,5 -4,-1 -7,-4 -10,-3 -3,0 -5,1 -7,2z"/>
 </g>
</svg>
